<svg xmlns="http://www.w3.org/2000/svg" viewBox="0 95 320 130"><path d="M 172 99 C 171 99, 166 100, 161 101 C 149 102, 137 106, 130 110 C 127 112, 121 115, 116 118 C 112 120, 103 126, 97 131 C 88 137, 85 139, 82 139 C 78 139, 62 142, 51 145 C 31 150, 17 159, 15 168 C 15 170, 14 171, 13 172 C 12 174, 12 183, 14 185 C 15 187, 15 188, 14 191 C 13 194, 13 196, 13 197 C 15 200, 38 207, 42 206 C 43 206, 44 206, 44 207 C 45 209, 45 210, 40 210 C 37 210, 33 210, 32 210 C 30 211, 28 211, 28 211 C 27 210, 13 212, 12 213 C 10 214, 13 215, 20 215 C 24 215, 26 215, 25 215 C 24 215, 23 216, 23 217 C 23 218, 30 217, 37 216 L 39 215 37 216 C 33 218, 35 219, 44 219 C 62 220, 143 219, 147 218 C 151 218, 152 218, 153 219 C 153 220, 155 219, 162 218 C 167 217, 171 217, 171 217 C 172 217, 171 218, 170 218 C 169 218, 167 218, 167 219 C 166 220, 168 220, 179 218 C 182 217, 183 218, 182 218 C 181 220, 183 220, 190 218 C 194 218, 195 218, 196 219 C 196 220, 198 220, 207 218 C 209 218, 210 218, 209 218 C 209 219, 215 219, 226 219 C 258 220, 269 220, 273 218 C 276 217, 277 217, 277 217 C 278 218, 288 217, 298 214 C 303 212, 297 212, 290 214 C 286 215, 283 215, 283 215 C 283 215, 284 214, 287 214 C 294 212, 293 210, 286 211 C 282 211, 281 211, 281 210 C 282 210, 280 209, 276 210 C 273 210, 271 210, 271 210 C 271 209, 272 207, 273 205 C 274 202, 275 201, 276 201 C 277 201, 281 200, 286 199 C 294 196, 297 193, 298 189 C 298 187, 299 183, 300 180 C 302 171, 302 168, 298 165 C 295 163, 295 162, 296 156 C 296 142, 296 143, 287 133 C 282 128, 276 122, 273 119 L 267 115 269 113 C 274 108, 272 106, 262 106 C 254 107, 244 104, 242 102 C 242 101, 238 101, 234 101 C 230 101, 221 100, 215 100 C 204 99, 175 98, 172 99 M 175 103 C 173 103, 170 104, 169 105 C 168 105, 163 106, 157 107 C 152 108, 145 109, 142 110 C 138 110, 124 117, 114 123 C 100 132, 86 143, 87 144 C 87 145, 87 145, 86 145 C 86 145, 83 146, 81 147 C 77 149, 75 149, 79 147 L 81 145 75 145 C 66 146, 47 150, 37 155 C 29 158, 28 159, 34 157 C 35 157, 39 157, 42 157 C 44 157, 47 156, 47 156 C 47 155, 53 152, 60 151 C 63 151, 64 151, 63 151 C 63 152, 61 153, 59 153 C 52 154, 48 156, 48 157 C 48 157, 48 157, 49 157 C 50 157, 52 156, 53 156 C 56 155, 56 156, 53 157 C 51 158, 48 161, 46 163 C 40 170, 35 173, 25 173 C 14 174, 13 176, 24 176 L 31 176 29 178 C 26 179, 23 180, 19 180 C 17 179, 17 180, 17 180 C 17 181, 19 181, 21 181 C 27 181, 29 183, 31 188 C 33 195, 33 196, 24 195 C 16 194, 16 194, 22 197 C 27 199, 32 199, 37 197 C 40 196, 41 196, 41 193 C 41 188, 43 181, 46 177 L 49 173 46 171 C 43 168, 43 168, 47 170 C 49 172, 50 172, 54 169 C 64 162, 76 162, 87 169 C 92 173, 96 181, 98 191 C 98 195, 99 199, 100 199 C 100 199, 100 198, 100 197 C 99 196, 100 196, 102 196 C 103 196, 104 195, 103 194 C 102 191, 100 174, 99 166 C 99 162, 98 158, 98 158 C 91 159, 87 159, 86 159 C 85 158, 90 157, 95 157 C 99 157, 99 156, 100 152 L 101 149 95 150 C 92 150, 86 151, 83 151 L 77 151 83 150 C 87 149, 89 148, 93 144 C 95 142, 98 139, 100 137 C 102 136, 103 134, 103 134 C 103 133, 104 133, 105 133 C 106 133, 111 130, 117 126 C 136 113, 142 111, 167 107 C 174 106, 210 107, 221 109 C 227 110, 232 111, 234 111 C 237 111, 246 119, 250 125 L 254 130 250 138 C 245 147, 240 154, 230 167 C 226 173, 220 180, 218 184 C 212 195, 220 194, 133 196 C 117 197, 103 197, 103 197 C 103 198, 105 198, 107 198 C 109 198, 132 197, 158 197 C 184 197, 208 196, 211 196 C 216 195, 217 195, 217 196 C 217 197, 217 198, 218 198 C 219 198, 219 197, 220 189 C 225 165, 250 154, 268 168 L 272 171 274 168 C 279 164, 281 163, 277 167 C 273 171, 273 172, 274 173 C 277 177, 278 181, 279 187 C 280 193, 280 193, 283 192 C 284 192, 287 190, 288 189 C 289 188, 291 187, 292 187 C 293 187, 294 185, 294 183 L 295 180 291 181 C 288 182, 287 182, 288 179 C 288 178, 289 176, 292 175 C 295 174, 297 172, 297 171 C 297 170, 296 169, 296 169 C 294 169, 292 163, 292 160 C 292 159, 291 158, 290 158 C 286 158, 284 157, 280 153 C 270 146, 270 142, 282 141 C 285 141, 288 140, 288 139 C 287 139, 278 136, 276 136 C 275 136, 273 134, 272 132 C 270 130, 266 125, 262 121 C 258 117, 254 113, 253 112 C 250 107, 197 101, 175 103 M 258 110 C 255 111, 255 111, 257 113 C 259 115, 259 114, 263 112 C 265 111, 267 110, 267 110 C 267 109, 260 110, 258 110 M 164 113 C 156 113, 145 116, 142 118 C 140 119, 137 120, 134 121 C 128 124, 113 134, 114 134 C 116 135, 119 138, 119 141 C 119 143, 119 144, 122 144 C 125 144, 125 143, 124 141 C 122 134, 125 132, 127 139 L 128 142 137 142 C 141 142, 149 142, 155 141 L 164 140 167 126 C 169 119, 171 112, 170 112 C 170 112, 167 112, 164 113 M 182 112 C 182 112, 182 118, 181 126 C 180 133, 179 139, 179 139 C 179 140, 185 139, 192 139 C 198 138, 209 137, 214 137 C 228 136, 227 137, 227 125 L 227 115 219 114 C 212 112, 183 111, 182 112 M 231 125 C 231 131, 231 136, 231 136 C 234 136, 243 133, 244 133 C 245 132, 237 121, 233 118 L 231 115 231 125 M 111 138 C 107 139, 108 140, 112 140 C 115 139, 117 138, 114 137 C 114 137, 112 137, 111 138 M 243 138 C 241 139, 232 140, 222 141 C 213 142, 201 143, 195 144 C 190 144, 183 145, 180 145 C 172 145, 173 144, 172 162 C 172 168, 171 176, 171 179 L 171 184 187 183 C 204 183, 202 183, 179 185 C 172 186, 172 186, 172 188 C 172 190, 172 191, 174 190 C 175 190, 184 190, 194 190 L 213 190 216 184 C 218 180, 221 176, 223 173 C 224 171, 229 165, 232 161 C 238 154, 248 138, 247 137 C 247 137, 245 137, 243 138 M 251 145 C 247 145, 247 145, 253 145 C 256 145, 260 145, 263 145 L 267 144 261 144 C 258 144, 253 144, 251 145 M 279 144 C 276 145, 275 145, 277 146 C 279 149, 292 147, 291 144 C 290 143, 285 143, 279 144 M 162 146 C 158 146, 145 147, 135 148 C 121 148, 115 149, 113 150 C 112 152, 109 152, 108 151 C 107 148, 103 149, 102 152 C 102 154, 102 155, 102 155 C 102 156, 108 155, 115 155 C 129 153, 133 153, 132 154 C 132 154, 105 158, 102 158 C 101 158, 102 169, 103 180 C 104 191, 105 195, 106 193 C 107 192, 117 192, 130 191 C 143 191, 153 191, 153 191 C 153 192, 142 192, 130 193 L 108 193 132 193 C 144 193, 158 193, 163 192 L 170 192 162 191 L 154 191 161 191 C 168 190, 169 190, 169 188 C 169 185, 169 185, 144 187 C 125 189, 116 189, 117 188 C 117 188, 127 187, 139 186 C 150 185, 162 184, 164 184 L 169 183 169 177 C 169 169, 170 151, 171 147 C 172 145, 171 145, 170 145 C 170 145, 166 145, 162 146 M 222 147 C 219 149, 219 150, 221 151 C 225 154, 237 152, 237 148 C 237 144, 226 143, 222 147 M 223 149 C 221 149, 223 149, 227 149 C 230 149, 233 149, 234 149 C 235 148, 233 148, 230 148 C 226 148, 223 148, 223 149 M 287 148 C 280 150, 280 150, 282 151 C 283 152, 284 152, 286 152 C 288 151, 288 151, 287 151 C 286 150, 286 150, 289 149 C 292 148, 291 147, 287 148 M 183 149 C 180 149, 177 150, 176 150 C 175 151, 191 151, 197 149 C 201 149, 200 149, 195 149 C 192 149, 186 149, 183 149 M 152 151 C 150 152, 149 153, 149 154 C 149 154, 149 154, 150 154 C 151 154, 155 153, 159 153 C 166 152, 167 151, 162 150 C 158 149, 155 149, 152 151 M 156 154 C 153 154, 152 155, 152 156 C 153 158, 160 158, 164 155 C 166 153, 166 153, 156 154 M 112 162 C 109 163, 107 165, 107 165 C 107 166, 116 161, 117 159 C 118 158, 118 158, 112 162 M 32 161 C 29 162, 27 162, 26 162 C 26 163, 24 168, 24 170 C 24 173, 36 169, 41 164 L 46 160 42 160 C 39 160, 35 160, 32 161 M 240 178 C 232 182, 229 192, 232 201 C 236 210, 248 215, 255 210 C 256 208, 258 208, 258 208 C 260 208, 264 201, 265 197 C 269 182, 254 170, 240 178 M 61 178 C 48 185, 47 201, 58 209 C 71 218, 89 204, 85 189 C 82 179, 70 173, 61 178 M 246 180 C 246 184, 247 190, 249 190 C 250 190, 250 188, 251 183 L 252 178 249 178 C 246 178, 246 178, 246 180 M 65 179 C 65 180, 65 183, 66 186 C 67 190, 67 191, 66 192 C 65 194, 65 194, 66 196 C 67 198, 67 199, 66 202 C 65 208, 65 210, 68 209 C 70 209, 70 208, 70 205 L 70 200 72 204 C 73 209, 74 209, 76 207 C 77 205, 77 205, 74 201 C 72 199, 70 198, 70 198 C 69 198, 69 198, 69 197 C 69 197, 69 197, 70 197 C 71 197, 71 193, 70 192 C 69 191, 69 189, 70 186 C 72 180, 71 179, 68 179 C 67 179, 65 179, 65 179 M 72 185 C 70 191, 71 192, 75 187 C 78 184, 79 183, 78 182 C 75 179, 74 180, 72 185 M 237 183 C 235 186, 236 188, 241 190 C 246 191, 246 191, 243 185 C 240 180, 239 180, 237 183 M 254 184 C 250 191, 251 192, 257 187 C 260 184, 261 184, 260 182 C 257 180, 256 180, 254 184 M 56 185 C 55 187, 54 188, 54 189 C 54 190, 63 192, 64 192 C 66 191, 66 191, 63 186 C 59 181, 59 181, 56 185 M 76 189 C 71 192, 72 193, 77 192 C 83 191, 83 191, 82 189 C 81 186, 80 186, 76 189 M 259 190 C 252 191, 251 193, 255 197 C 260 200, 261 200, 263 197 C 265 191, 264 188, 259 190 M 177 192 C 174 192, 179 192, 190 192 C 200 192, 208 191, 208 191 C 209 190, 184 191, 177 192 M 233 191 C 232 192, 232 195, 234 197 C 235 199, 235 199, 240 197 C 243 195, 244 194, 244 193 C 243 191, 235 190, 233 191 M 246 192 C 246 193, 246 194, 246 195 C 248 196, 251 195, 251 193 C 251 190, 247 190, 246 192 M 53 196 C 54 201, 55 201, 60 198 C 65 195, 65 194, 58 194 L 52 193 53 196 M 72 195 C 72 196, 73 198, 76 199 C 80 202, 80 202, 81 200 C 84 196, 83 195, 77 195 C 74 195, 72 195, 72 195 M 241 199 L 236 203 238 205 C 240 206, 241 207, 241 206 C 242 205, 247 197, 247 196 C 247 195, 245 196, 241 199 M 61 200 C 57 204, 56 204, 58 205 C 60 207, 61 207, 64 202 C 67 196, 66 196, 61 200 M 247 201 C 246 208, 247 211, 250 209 C 251 208, 251 207, 250 203 C 249 196, 248 195, 247 201 M 251 198 C 251 200, 256 206, 257 206 C 259 205, 259 203, 255 200 C 252 196, 251 196, 251 198 M 105 204 C 95 205, 92 205, 92 209 C 92 209, 121 209, 158 209 C 195 209, 225 209, 225 209 C 225 209, 224 207, 223 206 L 222 203 169 204 C 140 204, 111 204, 105 204 M 268 215 C 263 216, 261 218, 265 217 C 268 216, 274 214, 273 214 C 272 214, 270 214, 268 215 M 297 216 C 292 217, 290 217, 291 218 C 291 219, 307 216, 307 215 C 308 214, 301 215, 297 216" fill-rule="evenodd"/></svg>