<svg xmlns="http://www.w3.org/2000/svg" viewBox="0 0 320 320"><path d="M 185 13 C 180 14, 174 15, 173 14 C 173 13, 168 13, 161 13 C 155 13, 150 12, 149 12 C 148 11, 138 14, 134 16 C 132 18, 127 20, 123 22 C 119 24, 115 26, 113 28 C 111 31, 110 31, 111 29 C 112 27, 112 26, 111 27 C 110 27, 106 37, 107 37 C 108 37, 108 39, 108 41 C 107 45, 108 44, 116 36 C 121 31, 122 30, 118 35 C 115 38, 112 42, 111 44 C 110 45, 108 47, 106 48 C 104 49, 101 51, 100 53 C 96 56, 96 55, 102 47 C 106 42, 106 41, 105 40 C 103 38, 102 39, 98 44 C 91 52, 88 57, 89 58 C 90 60, 90 61, 89 62 C 88 64, 85 77, 85 79 C 85 81, 85 82, 86 82 C 87 82, 88 85, 88 90 C 88 94, 89 98, 90 99 C 92 101, 93 107, 91 108 C 88 109, 85 117, 85 124 C 86 141, 94 154, 103 154 C 106 154, 107 154, 107 155 C 107 159, 111 171, 113 173 C 115 175, 116 194, 113 194 C 112 194, 104 202, 103 203 C 103 203, 101 208, 97 212 L 91 220 77 226 C 60 234, 40 246, 40 247 C 40 248, 39 249, 38 249 C 37 249, 37 250, 38 250 C 39 252, 39 252, 49 247 C 55 244, 56 244, 52 247 C 48 250, 49 251, 52 249 C 65 240, 89 227, 91 228 C 91 228, 90 229, 87 231 C 78 235, 50 255, 51 256 C 51 256, 81 237, 89 232 C 91 231, 91 231, 91 232 C 91 232, 89 235, 85 237 C 75 243, 55 261, 58 261 C 58 261, 66 255, 75 249 C 85 241, 92 237, 92 238 C 92 239, 90 241, 87 243 C 80 248, 65 262, 66 263 C 66 263, 72 259, 79 253 C 91 244, 92 243, 93 245 C 93 246, 93 247, 90 249 C 86 253, 71 268, 71 269 C 71 269, 76 265, 82 260 C 88 254, 93 250, 93 250 C 94 250, 98 273, 98 276 C 98 277, 99 278, 100 279 C 102 281, 101 282, 114 272 L 123 264 114 273 C 109 278, 105 281, 106 281 C 107 281, 113 277, 120 271 C 128 263, 133 260, 134 261 C 135 263, 135 263, 131 266 C 126 269, 107 287, 108 287 C 108 288, 115 282, 122 276 L 136 264 142 267 C 145 269, 149 271, 150 271 C 150 271, 152 272, 153 272 C 155 273, 156 272, 154 270 C 153 269, 153 268, 153 268 C 153 267, 150 265, 146 262 C 141 258, 139 256, 138 253 C 138 251, 136 249, 135 249 C 132 247, 131 249, 115 261 C 111 265, 106 269, 105 269 C 104 270, 104 269, 102 255 L 99 240 102 235 C 104 232, 105 230, 105 230 C 105 230, 104 231, 102 233 L 100 237 99 234 C 99 232, 99 230, 100 229 C 101 228, 103 225, 104 224 C 106 220, 106 221, 103 225 C 97 230, 97 227, 102 220 C 105 216, 105 216, 103 217 C 99 221, 100 220, 106 211 C 113 200, 115 199, 114 206 C 114 208, 114 211, 115 213 C 118 218, 129 235, 133 239 C 139 246, 148 256, 154 262 L 160 268 155 274 L 151 280 151 291 C 151 305, 151 308, 154 307 C 156 307, 156 306, 157 294 L 157 281 170 266 C 191 243, 210 212, 207 207 C 206 205, 206 199, 207 199 C 208 199, 216 210, 219 215 C 220 218, 220 219, 220 221 C 218 223, 218 224, 220 223 C 221 222, 221 222, 222 226 C 222 229, 222 232, 222 232 C 222 233, 222 234, 222 234 C 224 234, 224 239, 222 240 C 221 241, 221 241, 223 241 C 224 240, 224 242, 225 252 C 226 259, 227 265, 227 266 C 227 267, 227 269, 227 269 C 226 269, 219 264, 211 259 C 203 253, 195 249, 194 249 C 192 249, 190 251, 189 255 C 188 258, 186 260, 181 264 C 177 267, 173 270, 172 272 C 171 273, 168 276, 165 278 C 159 284, 158 287, 162 290 C 165 293, 168 292, 170 288 C 172 285, 171 282, 168 281 C 166 280, 166 279, 169 277 C 171 276, 173 275, 174 275 C 176 275, 180 273, 186 267 C 196 260, 200 258, 199 260 C 199 261, 198 262, 196 263 C 191 267, 179 278, 180 279 C 180 279, 186 275, 197 266 C 200 263, 202 263, 204 263 C 206 264, 206 265, 203 266 C 200 269, 190 278, 190 279 C 190 280, 191 279, 199 272 C 207 266, 208 265, 210 267 C 211 268, 212 269, 212 269 C 211 270, 209 272, 207 274 C 200 279, 188 291, 189 291 C 189 291, 195 286, 202 280 C 213 270, 214 270, 216 271 C 227 278, 233 280, 234 276 C 234 271, 233 263, 232 253 C 231 240, 231 241, 240 235 C 248 231, 247 233, 240 239 C 234 243, 231 248, 236 244 C 244 239, 251 235, 251 236 C 252 236, 250 238, 247 241 C 233 250, 233 252, 246 244 C 254 239, 259 237, 259 239 C 259 240, 257 241, 255 242 C 251 244, 239 253, 240 253 C 240 253, 245 251, 250 247 C 255 243, 260 241, 261 241 C 264 241, 263 242, 259 245 C 254 248, 248 253, 251 251 C 253 251, 256 249, 260 246 C 265 243, 266 243, 268 244 C 269 244, 270 245, 270 245 C 270 245, 265 249, 259 253 C 245 262, 240 266, 241 266 C 241 266, 246 263, 252 259 C 270 246, 271 246, 275 247 C 279 249, 282 248, 282 245 C 282 243, 270 237, 254 229 C 247 226, 238 222, 234 220 C 229 218, 227 216, 227 215 C 227 210, 211 190, 208 191 C 206 192, 206 175, 208 172 C 210 170, 214 158, 214 154 C 214 152, 214 152, 217 152 C 221 152, 226 146, 230 139 C 232 135, 232 132, 232 124 C 233 113, 231 108, 227 106 C 224 105, 224 104, 226 98 C 228 93, 229 84, 228 79 C 228 77, 228 76, 228 76 C 232 76, 231 59, 228 54 C 227 52, 226 50, 226 49 C 226 47, 216 39, 214 39 C 213 39, 212 39, 210 41 L 207 43 208 40 C 210 32, 208 24, 201 20 C 196 16, 195 18, 198 22 C 201 25, 201 26, 199 25 C 198 24, 196 23, 196 22 C 195 21, 192 20, 189 20 C 187 20, 185 19, 185 19 C 185 19, 186 17, 188 15 C 193 11, 192 10, 185 13 M 151 21 C 148 22, 147 24, 147 24 C 147 24, 147 24, 148 24 C 148 24, 152 22, 155 21 C 161 19, 162 19, 159 19 C 156 19, 153 20, 151 21 M 136 26 C 130 30, 125 33, 124 35 L 122 37 124 35 C 125 35, 130 32, 135 29 C 144 24, 147 22, 146 21 C 146 21, 141 23, 136 26 M 163 21 C 159 23, 154 26, 155 27 C 155 27, 156 27, 157 26 C 158 25, 160 24, 162 24 C 165 23, 168 20, 166 21 C 166 21, 165 21, 163 21 M 149 27 C 147 28, 145 30, 145 30 C 145 31, 152 26, 154 25 C 155 23, 155 23, 149 27 M 166 26 C 159 28, 157 29, 151 33 C 142 40, 141 42, 147 38 C 152 35, 163 30, 164 30 C 168 30, 166 33, 160 37 C 153 42, 153 42, 159 39 C 162 38, 168 35, 174 32 C 179 30, 184 27, 186 27 L 188 25 186 26 C 184 26, 180 27, 176 28 C 169 31, 168 30, 173 27 C 177 24, 176 24, 166 26 M 137 33 C 133 35, 130 37, 130 38 C 129 39, 130 39, 131 38 C 131 37, 135 35, 138 33 C 143 30, 144 29, 143 29 C 143 29, 140 30, 137 33 M 190 30 C 188 31, 184 32, 182 33 C 179 34, 178 35, 178 34 C 178 33, 169 37, 164 41 C 160 44, 158 44, 162 41 L 165 38 161 41 C 156 44, 143 53, 143 53 C 143 54, 150 49, 155 46 C 157 45, 159 44, 160 44 C 160 44, 162 44, 165 43 C 172 40, 171 41, 161 48 C 150 56, 149 56, 157 52 C 169 47, 171 46, 171 45 C 171 43, 184 34, 190 32 C 192 31, 195 30, 195 29 C 195 29, 194 29, 194 29 C 194 29, 192 29, 190 30 M 182 41 C 179 42, 176 44, 175 44 C 174 44, 173 45, 171 47 C 169 48, 165 51, 162 54 C 158 56, 156 58, 156 58 C 156 59, 169 52, 175 48 C 178 45, 183 42, 185 40 C 190 37, 188 37, 182 41 M 130 44 C 124 49, 122 50, 125 49 C 127 48, 137 40, 137 40 C 137 39, 136 39, 130 44 M 193 54 C 189 56, 187 57, 187 57 C 187 56, 184 57, 182 59 C 176 63, 161 69, 155 70 C 154 70, 151 70, 149 70 L 146 69 150 68 C 153 67, 165 61, 164 61 C 164 61, 162 61, 160 62 C 152 65, 134 69, 132 68 C 130 67, 130 66, 133 64 C 136 63, 136 63, 129 62 C 126 62, 122 62, 122 61 C 121 60, 120 62, 120 64 C 120 64, 118 68, 115 73 C 112 77, 110 81, 111 81 C 111 81, 112 80, 112 80 C 112 79, 117 74, 118 75 C 119 75, 113 86, 111 88 C 108 92, 109 93, 112 89 C 118 83, 119 85, 113 94 C 111 97, 110 100, 110 102 C 110 104, 110 106, 110 108 C 109 109, 109 113, 110 116 C 110 119, 110 123, 110 124 C 109 125, 108 127, 108 128 C 107 130, 107 130, 106 128 C 105 127, 104 124, 103 122 C 102 117, 99 114, 96 114 C 93 114, 92 116, 95 118 C 96 119, 97 120, 96 120 C 96 120, 95 120, 94 120 C 92 118, 91 119, 91 124 C 91 135, 98 148, 104 148 C 106 148, 106 147, 107 143 C 107 137, 109 139, 111 150 C 115 169, 117 173, 133 185 C 148 197, 151 198, 166 197 C 177 196, 179 195, 192 182 C 203 171, 206 167, 208 151 C 210 140, 213 134, 213 140 C 213 149, 218 147, 223 138 C 226 133, 226 131, 226 123 C 226 112, 225 110, 221 113 C 218 114, 217 116, 214 126 C 212 132, 209 122, 210 114 C 210 111, 211 109, 211 108 C 211 108, 210 104, 210 100 C 210 95, 210 92, 208 90 C 207 87, 206 83, 207 83 C 208 83, 209 83, 210 84 C 212 86, 211 85, 209 81 C 207 78, 207 76, 207 73 C 208 69, 203 58, 201 59 C 196 61, 194 60, 194 58 C 194 57, 195 56, 196 55 C 197 53, 199 50, 198 51 C 198 51, 196 52, 193 54 M 210 54 C 208 56, 207 57, 209 56 C 210 55, 212 54, 212 53 C 212 53, 213 53, 214 53 C 214 53, 214 54, 213 55 C 211 57, 211 57, 214 57 C 216 56, 216 56, 214 58 C 212 61, 214 61, 217 59 C 218 58, 218 58, 217 56 C 216 55, 215 54, 215 54 C 215 50, 214 50, 210 54 M 100 60 C 96 65, 94 68, 97 66 C 99 63, 105 56, 104 56 C 104 56, 102 57, 100 60 M 102 65 C 101 66, 98 69, 97 71 L 95 74 99 71 C 103 67, 107 62, 106 62 C 106 62, 104 63, 102 65 M 108 66 C 108 66, 107 67, 106 67 C 105 67, 104 68, 104 69 C 104 69, 104 71, 102 72 C 98 77, 96 80, 97 80 C 97 80, 100 76, 103 73 C 107 69, 109 66, 109 66 C 109 66, 109 66, 108 66 M 184 92 C 177 93, 173 95, 172 97 C 171 101, 173 101, 181 100 C 191 98, 196 98, 201 101 C 205 103, 206 101, 202 97 C 197 92, 193 91, 184 92 M 131 94 C 126 95, 124 97, 120 100 C 116 104, 117 105, 123 102 C 127 100, 129 100, 139 101 C 151 102, 153 101, 148 96 C 145 93, 139 93, 131 94 M 180 105 C 177 106, 174 111, 175 112 C 175 112, 177 112, 178 111 C 182 109, 183 109, 182 112 C 181 113, 181 116, 182 118 C 184 125, 192 121, 190 113 C 189 109, 191 108, 195 112 C 200 115, 200 112, 196 108 C 192 105, 184 104, 180 105 M 131 107 C 127 109, 123 113, 124 114 C 124 115, 126 114, 128 113 C 133 110, 134 110, 132 114 C 131 120, 137 125, 140 120 C 141 118, 142 116, 141 114 C 140 110, 141 110, 144 112 C 148 115, 149 112, 145 108 C 142 105, 136 105, 131 107 M 157 120 C 156 124, 154 131, 153 135 C 150 144, 150 145, 153 147 C 158 150, 172 149, 173 145 C 174 143, 173 142, 167 144 C 160 145, 156 144, 157 140 C 160 130, 161 112, 159 112 C 158 112, 157 115, 157 120 M 218 122 C 216 125, 215 135, 217 135 C 218 135, 220 130, 220 127 C 220 125, 221 123, 221 122 C 222 119, 220 119, 218 122 M 97 122 C 97 123, 97 124, 98 125 C 98 125, 98 128, 98 130 C 99 134, 100 137, 102 136 C 104 135, 103 125, 101 123 C 99 121, 98 121, 97 122 M 184 154 C 180 161, 141 162, 141 155 C 141 155, 139 155, 138 155 C 137 155, 136 156, 136 157 C 136 160, 137 160, 143 162 C 158 166, 188 162, 188 155 C 188 153, 185 152, 184 154 M 153 170 C 151 172, 157 175, 162 174 C 167 173, 172 172, 172 170 C 172 170, 154 170, 153 170 M 120 195 L 120 209 129 222 C 134 229, 138 236, 138 236 C 138 237, 139 239, 142 241 C 147 245, 162 262, 162 264 C 162 266, 164 263, 173 253 C 178 247, 183 242, 183 241 C 186 236, 199 216, 200 214 C 201 212, 201 182, 200 182 C 200 182, 197 185, 193 189 C 188 193, 186 195, 187 194 C 189 192, 191 192, 190 193 C 188 196, 167 213, 165 213 C 164 213, 166 210, 169 208 L 174 203 168 206 C 162 210, 159 210, 162 207 C 164 205, 164 205, 162 206 C 161 206, 159 207, 158 207 C 155 208, 155 208, 156 206 C 158 205, 157 205, 153 204 C 148 203, 146 202, 139 197 C 134 193, 129 188, 127 186 C 126 184, 124 183, 123 182 C 121 182, 121 182, 120 195 M 180 206 C 174 211, 170 215, 170 215 C 170 216, 173 213, 177 210 C 188 201, 192 198, 192 197 C 191 197, 186 201, 180 206 M 186 209 C 177 217, 174 221, 181 215 C 187 209, 196 201, 195 201 C 195 201, 191 204, 186 209 M 186 217 C 181 221, 179 224, 181 223 C 185 220, 195 210, 194 210 C 194 210, 190 213, 186 217 M 184 227 C 181 229, 180 232, 180 232 C 181 232, 183 229, 186 227 C 189 224, 190 222, 190 222 C 189 222, 187 224, 184 227 M 234 233 C 232 235, 231 236, 231 238 C 231 240, 231 239, 234 237 C 236 235, 238 233, 239 233 C 241 233, 242 232, 242 231 C 242 230, 238 231, 234 233 M 105 239 C 103 242, 101 244, 102 244 C 102 244, 104 242, 106 240 C 108 237, 110 235, 109 235 C 109 235, 107 237, 105 239 M 106 247 C 104 250, 102 252, 103 252 C 103 252, 108 247, 110 244 C 111 241, 109 243, 106 247 M 108 254 C 106 256, 104 258, 105 258 C 105 258, 107 257, 108 254 C 110 252, 111 250, 111 250 C 111 250, 109 251, 108 254 M 261 259 C 250 266, 238 275, 239 275 C 239 276, 255 264, 263 258 C 267 255, 266 255, 261 259 M 84 266 C 79 271, 75 274, 76 274 C 77 274, 81 271, 86 266 C 90 261, 94 258, 93 258 C 93 258, 88 261, 84 266 M 87 272 C 84 276, 81 278, 82 278 C 83 278, 86 276, 89 273 C 97 265, 95 265, 87 272 M 255 271 C 252 273, 250 275, 250 275 C 250 276, 257 271, 259 268 C 261 266, 260 266, 255 271 M 134 272 C 131 274, 126 279, 123 283 C 115 290, 117 290, 126 282 C 129 279, 133 275, 136 273 C 143 267, 141 266, 134 272 M 134 282 C 129 287, 125 291, 125 291 C 125 292, 132 287, 143 276 C 144 275, 145 274, 144 274 C 144 274, 140 277, 134 282 M 210 280 C 206 284, 203 287, 203 288 C 203 288, 206 285, 211 281 C 216 278, 220 274, 220 274 C 220 273, 217 274, 210 280 M 217 283 C 214 285, 211 288, 211 289 C 210 290, 212 289, 218 284 C 225 278, 225 279, 224 279 C 223 279, 220 280, 217 283 M 224 286 C 222 287, 220 289, 220 290 C 219 290, 221 289, 224 288 C 226 286, 228 284, 228 284 C 229 284, 229 283, 228 283 C 228 283, 226 284, 224 286 M 138 289 C 131 294, 129 298, 135 293 C 139 290, 145 284, 144 284 C 144 284, 141 286, 138 289" fill-rule="evenodd"/></svg>