<svg xmlns="http://www.w3.org/2000/svg" viewBox="0 0 320 320"><path d="M 56 55 C 50 56, 48 58, 49 63 L 49 67 42 67 C 31 67, 29 69, 29 75 C 28 80, 28 81, 26 81 C 23 81, 18 84, 16 87 C 12 95, 12 97, 12 166 C 13 242, 12 238, 20 243 C 23 245, 25 246, 40 246 C 51 247, 56 247, 54 248 C 52 248, 50 249, 50 249 C 49 250, 58 249, 61 247 C 62 247, 66 247, 70 247 L 77 247 66 250 C 60 252, 56 254, 56 255 C 56 256, 56 256, 61 254 C 71 250, 83 247, 91 247 C 99 247, 99 247, 82 253 C 76 255, 72 257, 72 258 C 72 258, 73 258, 88 253 C 94 251, 99 248, 99 248 C 100 246, 118 246, 119 248 C 119 248, 119 249, 118 249 C 117 249, 111 250, 105 253 C 98 255, 92 257, 91 257 C 90 257, 90 258, 90 259 C 90 259, 90 259, 91 259 C 112 252, 121 249, 121 248 C 120 247, 135 247, 184 247 C 239 247, 247 247, 244 248 C 242 249, 237 251, 231 254 C 217 259, 208 264, 208 265 C 208 265, 208 265, 209 265 C 209 265, 218 261, 229 257 C 239 252, 248 248, 248 248 C 249 246, 266 246, 265 247 C 265 247, 264 248, 263 248 C 262 248, 261 248, 261 249 C 260 251, 265 249, 284 240 C 293 235, 303 231, 304 230 C 306 230, 307 229, 306 229 C 305 228, 288 235, 281 239 C 276 242, 275 242, 278 237 C 280 234, 281 233, 287 230 C 291 228, 294 227, 294 226 C 295 225, 291 226, 286 229 C 283 230, 281 231, 280 231 C 280 232, 280 230, 280 228 C 280 225, 280 224, 285 222 C 292 218, 297 215, 296 215 C 296 215, 292 216, 288 218 C 284 221, 280 222, 280 222 C 279 221, 281 215, 282 215 C 284 215, 305 204, 304 204 C 304 204, 298 206, 292 208 L 281 213 280 172 C 280 109, 279 87, 276 81 C 274 77, 269 76, 259 76 L 249 76 249 72 C 249 59, 247 59, 227 60 C 218 60, 209 60, 207 60 C 201 59, 198 63, 198 71 L 198 78 192 77 L 186 77 182 71 C 174 61, 169 55, 166 55 C 164 55, 153 55, 142 56 C 117 56, 119 56, 111 67 C 102 77, 102 77, 98 78 C 93 78, 93 78, 93 75 C 93 73, 91 71, 90 70 C 88 69, 88 69, 91 68 C 95 66, 94 58, 90 56 C 86 54, 61 53, 56 55 M 66 58 C 60 59, 60 59, 60 62 C 60 63, 60 65, 61 65 C 61 65, 62 64, 62 63 C 62 60, 63 60, 64 63 C 64 64, 65 65, 66 65 C 68 66, 68 66, 68 63 L 68 60 76 60 C 84 59, 88 59, 80 59 C 78 59, 75 58, 74 58 C 74 58, 70 58, 66 58 M 132 63 C 122 64, 122 64, 112 77 C 107 83, 107 85, 111 82 C 112 81, 122 81, 145 81 L 177 80 172 72 C 169 68, 166 64, 165 63 C 163 62, 144 61, 132 63 M 206 66 C 206 67, 208 68, 211 68 C 219 69, 219 69, 228 68 C 238 66, 240 67, 239 73 C 239 75, 239 77, 240 77 C 242 77, 242 74, 241 69 L 240 66 223 66 C 214 66, 206 66, 206 66 M 38 73 L 35 73 38 73 C 42 74, 42 77, 37 78 L 34 79 38 79 C 41 79, 42 79, 42 78 C 41 76, 45 74, 48 74 C 49 74, 49 73, 49 73 C 48 71, 41 71, 38 73 M 62 73 C 61 73, 61 74, 61 75 C 61 76, 60 77, 59 77 C 57 78, 58 78, 65 78 C 69 78, 72 78, 70 78 C 66 77, 67 75, 72 75 C 79 74, 77 72, 70 73 C 67 73, 63 73, 62 73 M 209 76 L 203 76 210 76 C 217 76, 219 76, 216 75 C 215 75, 212 75, 209 76 M 166 76 C 165 78, 172 79, 173 78 C 173 77, 173 76, 173 76 C 172 76, 171 76, 169 76 C 168 76, 166 76, 166 76 M 203 84 C 195 84, 188 85, 188 85 C 184 87, 101 87, 99 86 C 98 85, 98 85, 97 85 C 97 85, 82 86, 65 86 C 47 86, 31 87, 30 87 C 22 89, 20 95, 20 118 C 21 120, 24 120, 25 119 C 25 118, 28 118, 30 118 C 35 118, 39 116, 39 113 C 39 111, 63 94, 64 95 C 64 95, 61 98, 56 101 C 51 104, 45 109, 42 112 L 36 118 69 117 L 102 117 105 114 C 118 101, 132 96, 156 96 C 165 96, 174 95, 176 95 C 178 95, 179 95, 179 95 C 179 96, 176 96, 173 96 C 170 97, 172 98, 175 99 C 178 100, 179 100, 182 97 C 183 96, 185 95, 185 95 C 186 95, 185 97, 183 98 C 180 101, 180 102, 182 102 C 182 102, 184 103, 187 104 C 190 107, 191 107, 192 105 C 194 103, 196 104, 201 109 C 204 111, 205 111, 206 111 C 206 110, 207 110, 208 110 C 209 110, 209 112, 207 113 C 206 113, 207 114, 208 116 C 210 117, 211 119, 210 119 C 210 119, 209 118, 208 117 C 205 113, 202 115, 205 119 C 207 121, 208 121, 211 121 C 212 121, 213 121, 213 121 C 212 121, 212 120, 212 119 C 212 118, 211 117, 210 116 C 209 115, 209 114, 209 114 C 210 113, 212 115, 214 119 C 215 122, 212 122, 243 122 C 254 121, 263 121, 263 121 C 264 121, 263 120, 263 119 C 261 117, 262 96, 264 93 C 266 90, 268 89, 270 91 C 273 93, 272 89, 269 86 L 267 84 242 84 C 228 84, 211 84, 203 84 M 220 94 L 217 94 217 103 C 217 110, 217 112, 218 113 C 218 114, 226 114, 234 114 L 249 113 249 104 C 249 99, 249 95, 248 94 C 247 93, 226 93, 220 94 M 34 96 C 31 97, 29 100, 30 101 C 30 101, 32 101, 33 99 C 35 98, 37 97, 37 97 C 38 97, 39 96, 39 96 C 40 94, 38 94, 34 96 M 35 100 C 29 104, 27 107, 29 107 C 29 107, 33 104, 36 101 C 45 94, 45 94, 43 95 C 43 95, 39 97, 35 100 M 43 98 C 36 103, 29 110, 29 112 C 29 113, 30 113, 32 110 C 33 109, 37 105, 41 102 C 50 95, 50 95, 49 95 C 48 95, 45 96, 43 98 M 45 101 C 36 108, 28 116, 30 116 C 30 116, 34 113, 38 109 C 42 105, 48 101, 51 99 C 53 97, 56 95, 56 95 C 56 94, 53 95, 45 101 M 188 98 C 186 100, 184 101, 185 101 C 186 101, 188 100, 190 98 C 192 96, 194 95, 193 95 C 192 95, 190 96, 188 98 M 268 98 C 267 100, 266 101, 265 102 C 264 102, 264 102, 265 102 C 267 103, 271 98, 270 96 C 270 96, 269 96, 268 98 M 193 99 C 192 101, 191 101, 190 101 C 189 100, 188 101, 189 102 C 189 103, 193 104, 193 102 C 193 102, 194 100, 195 99 C 196 98, 197 98, 196 98 C 195 98, 194 98, 193 99 M 54 107 C 50 110, 47 112, 47 112 C 48 113, 63 103, 63 102 C 63 101, 61 102, 54 107 M 87 104 C 85 107, 86 110, 89 111 C 94 112, 97 107, 94 104 C 93 102, 90 102, 87 104 M 140 104 C 129 106, 119 110, 111 117 C 107 121, 99 132, 99 133 C 99 134, 98 136, 96 138 C 86 151, 85 179, 94 198 C 98 205, 102 210, 105 211 C 107 211, 108 212, 109 216 C 110 219, 121 225, 130 228 C 151 235, 175 230, 191 215 C 198 209, 205 199, 208 192 C 209 189, 210 185, 211 183 C 214 177, 214 160, 212 151 C 209 134, 195 117, 181 109 C 171 104, 151 101, 140 104 M 243 106 C 243 107, 242 108, 241 108 C 241 108, 241 108, 241 109 C 241 109, 241 110, 243 110 C 244 110, 245 109, 245 107 C 245 103, 244 103, 243 106 M 62 108 C 57 111, 56 113, 61 110 C 64 109, 69 104, 67 105 C 67 105, 65 106, 62 108 M 193 107 C 192 108, 194 109, 196 109 C 197 110, 198 107, 196 106 C 195 105, 194 105, 193 107 M 197 110 C 196 110, 196 111, 199 112 C 201 114, 203 115, 202 113 C 202 112, 201 112, 201 112 C 200 112, 200 112, 200 111 C 201 109, 199 108, 197 110 M 138 112 C 123 116, 112 124, 104 139 C 89 162, 93 189, 112 209 C 116 213, 121 217, 121 217 C 122 217, 125 218, 127 219 C 133 223, 150 225, 161 222 C 188 215, 206 192, 206 165 C 206 134, 182 110, 153 111 C 147 111, 141 111, 138 112 M 269 118 C 267 121, 267 121, 270 121 C 272 121, 273 121, 273 118 C 273 115, 272 115, 269 118 M 62 123 C 55 123, 50 124, 50 124 C 50 125, 66 126, 77 125 C 86 124, 89 122, 80 123 C 77 123, 69 123, 62 123 M 21 177 C 21 217, 21 232, 22 233 C 26 237, 30 238, 48 239 C 72 240, 86 240, 90 238 C 92 238, 96 238, 99 238 C 103 238, 104 238, 105 237 C 105 236, 106 236, 107 237 C 107 238, 110 238, 112 239 L 115 239 112 236 C 107 233, 108 233, 117 235 C 125 238, 126 238, 121 235 C 119 235, 117 233, 116 233 C 113 231, 108 231, 72 231 C 27 231, 28 231, 26 225 C 25 224, 25 204, 24 180 C 24 157, 24 136, 24 134 C 24 131, 24 128, 25 126 C 25 124, 25 124, 23 124 L 20 124 21 177 M 37 124 C 39 124, 42 124, 44 124 C 46 124, 45 124, 41 124 C 37 124, 35 124, 37 124 M 144 130 C 130 132, 115 148, 114 162 C 114 165, 114 166, 114 165 C 115 161, 116 162, 117 166 C 117 168, 117 170, 118 171 C 118 172, 118 171, 118 167 C 119 151, 133 135, 148 134 C 152 133, 153 133, 152 132 C 151 132, 151 131, 151 130 C 152 128, 151 128, 144 130 M 164 130 C 184 138, 193 162, 184 181 C 179 192, 165 204, 157 204 C 156 204, 154 204, 154 205 C 153 206, 146 206, 139 204 C 128 200, 118 192, 114 181 C 113 178, 112 176, 112 176 C 111 177, 115 186, 118 190 C 126 203, 147 210, 161 206 C 167 204, 168 204, 168 206 C 168 206, 166 207, 163 209 C 161 210, 160 210, 161 210 C 164 210, 180 201, 179 199 C 179 199, 179 198, 180 197 C 182 196, 182 196, 181 198 C 179 200, 179 200, 181 199 C 182 198, 182 197, 182 196 C 182 196, 182 194, 184 193 C 185 192, 185 191, 185 191 C 184 191, 183 191, 183 193 C 182 194, 181 195, 180 195 C 180 195, 181 192, 182 190 C 187 182, 189 176, 189 166 C 189 155, 186 148, 179 140 C 175 135, 164 128, 161 129 C 160 129, 161 129, 164 130 M 230 129 C 232 129, 236 129, 239 129 C 241 129, 239 129, 234 129 C 229 129, 227 129, 230 129 M 64 131 C 62 131, 63 131, 67 131 C 69 131, 72 131, 73 131 C 74 130, 73 130, 70 130 C 67 130, 64 130, 64 131 M 123 137 C 120 140, 117 143, 116 145 C 116 146, 115 147, 116 147 C 116 146, 119 143, 122 139 C 130 132, 130 130, 123 137 M 73 134 C 70 134, 68 135, 67 136 C 66 137, 76 136, 77 135 C 78 134, 77 134, 73 134 M 55 136 C 54 137, 60 137, 63 136 C 65 135, 64 135, 60 135 C 58 135, 55 135, 55 136 M 234 138 C 232 139, 231 140, 231 140 C 231 140, 231 140, 232 140 C 232 139, 236 139, 240 138 C 247 137, 247 137, 242 137 C 239 137, 236 137, 234 138 M 63 139 C 61 140, 59 141, 57 142 L 54 143 57 143 C 59 144, 67 141, 67 139 C 67 139, 66 139, 66 139 C 66 139, 65 139, 63 139 M 69 141 L 66 142 69 142 C 73 142, 77 141, 76 140 C 75 139, 73 139, 69 141 M 140 143 C 135 145, 132 148, 129 153 C 126 157, 124 165, 126 164 C 127 164, 128 163, 128 162 C 128 158, 135 149, 144 142 C 147 140, 145 140, 140 143 M 221 142 C 221 143, 228 143, 229 142 C 229 141, 227 141, 225 141 C 223 141, 221 141, 221 142 M 248 142 L 242 142 248 142 C 252 142, 255 142, 255 142 C 255 141, 254 141, 254 141 C 254 141, 251 141, 248 142 M 62 146 C 57 147, 55 149, 60 148 C 63 148, 67 147, 65 146 C 65 146, 63 146, 62 146 M 229 146 C 223 147, 223 147, 227 148 C 229 148, 234 148, 237 147 C 240 147, 242 147, 240 147 C 239 147, 237 146, 236 146 C 236 146, 232 146, 229 146 M 141 150 C 136 153, 133 158, 133 161 C 132 163, 134 163, 136 160 C 137 158, 139 155, 141 154 C 148 147, 148 144, 141 150 M 64 151 C 60 152, 58 154, 62 154 C 66 154, 69 153, 69 151 C 69 151, 68 151, 68 151 C 67 151, 66 151, 64 151 M 232 151 C 231 151, 229 152, 229 152 C 229 153, 245 153, 246 151 C 247 151, 237 151, 232 151 M 50 153 C 49 154, 55 154, 57 153 C 58 152, 57 152, 54 152 C 52 152, 50 152, 50 153 M 231 157 C 229 158, 237 158, 240 157 C 241 156, 241 156, 237 156 C 234 156, 231 156, 231 157 M 245 156 C 245 157, 247 157, 251 157 C 259 156, 259 156, 252 156 C 248 156, 245 156, 245 156 M 53 160 C 45 161, 44 163, 52 162 C 55 162, 59 162, 60 162 C 61 162, 63 161, 63 161 C 63 160, 62 160, 61 160 C 60 160, 56 160, 53 160 M 176 163 C 176 171, 167 183, 158 188 C 153 190, 154 191, 160 189 C 162 188, 162 189, 162 190 C 161 192, 157 194, 151 194 C 148 195, 146 195, 146 196 C 146 198, 158 196, 162 193 C 173 187, 178 176, 178 163 C 177 158, 176 159, 176 163 M 228 160 C 227 160, 227 161, 227 161 C 228 162, 234 162, 234 160 C 234 159, 230 159, 228 160 M 238 161 C 236 161, 237 161, 241 161 C 243 161, 246 161, 247 161 C 249 160, 248 160, 245 160 C 242 160, 239 160, 238 161 M 168 168 C 167 173, 159 182, 152 184 L 148 185 152 185 C 160 186, 171 175, 169 166 C 169 165, 169 165, 168 168 M 242 165 C 238 165, 235 166, 235 166 C 236 167, 250 167, 251 165 C 252 165, 251 165, 250 165 C 250 165, 246 165, 242 165 M 57 166 C 56 166, 55 167, 54 168 C 53 169, 64 168, 65 166 C 66 165, 61 165, 57 166 M 67 169 C 66 170, 64 171, 62 171 C 59 171, 57 172, 56 173 C 54 174, 54 175, 58 174 C 63 173, 72 168, 69 168 C 68 168, 67 168, 67 169 M 196 176 C 193 187, 190 192, 183 200 C 171 211, 156 217, 144 215 C 141 215, 141 215, 142 215 C 145 217, 152 217, 159 215 C 177 212, 192 197, 197 179 C 199 170, 198 168, 196 176 M 233 172 L 227 172 233 172 C 236 172, 239 172, 241 172 L 243 171 241 171 C 239 171, 236 171, 233 172 M 244 172 C 244 173, 250 173, 253 172 C 254 171, 253 171, 249 171 C 246 171, 244 171, 244 172 M 228 177 C 227 178, 240 178, 249 177 C 254 177, 254 177, 251 176 C 243 176, 230 176, 228 177 M 57 178 C 55 179, 59 179, 66 178 L 70 177 64 177 C 61 177, 57 177, 57 178 M 287 180 C 285 181, 284 182, 284 183 C 284 184, 290 180, 292 178 C 294 177, 291 178, 287 180 M 104 181 C 103 183, 109 195, 110 195 C 110 195, 111 195, 111 196 C 111 197, 117 204, 118 204 C 118 204, 117 201, 115 199 C 112 196, 109 191, 107 187 C 105 183, 104 181, 104 181 M 244 181 C 241 182, 237 186, 239 186 C 240 186, 241 185, 241 185 C 241 184, 242 183, 245 183 C 247 183, 249 182, 249 181 C 249 180, 248 180, 244 181 M 232 184 L 228 185 231 185 C 233 185, 234 185, 234 185 C 234 184, 235 183, 236 183 C 238 182, 238 182, 237 182 C 236 182, 233 183, 232 184 M 174 188 C 170 192, 171 194, 175 190 C 176 188, 178 186, 177 186 C 177 186, 176 187, 174 188 M 288 189 C 286 190, 283 192, 283 192 C 282 193, 281 194, 282 194 C 282 195, 294 188, 294 187 C 294 186, 291 187, 288 189 M 292 196 C 284 201, 280 204, 282 204 C 283 204, 285 202, 287 201 C 289 200, 293 198, 296 197 C 299 195, 302 194, 302 193 C 302 192, 300 192, 292 196 M 230 195 C 229 196, 246 196, 247 195 C 248 195, 244 195, 239 195 C 234 195, 230 195, 230 195 M 290 203 C 287 204, 286 205, 286 205 C 287 206, 295 202, 295 201 C 295 201, 294 201, 294 201 C 294 201, 292 202, 290 203 M 226 203 C 225 204, 231 204, 233 203 C 234 202, 233 202, 230 202 C 228 202, 226 202, 226 203 M 240 203 L 235 203 241 203 C 244 203, 247 203, 247 203 C 247 202, 246 202, 246 202 C 245 202, 243 202, 240 203 M 221 208 C 220 208, 223 208, 227 208 C 231 208, 236 208, 237 207 C 238 206, 224 207, 221 208 M 242 208 C 240 208, 243 208, 248 208 C 254 208, 258 208, 258 208 C 258 206, 245 206, 242 208 M 231 213 C 230 213, 231 213, 235 213 C 238 213, 241 213, 242 213 C 243 211, 234 211, 231 213 M 245 213 C 244 213, 245 213, 249 213 C 252 213, 254 213, 254 213 C 253 211, 248 211, 245 213 M 299 218 C 292 221, 290 223, 292 223 C 294 223, 306 217, 307 216 C 308 215, 307 215, 299 218 M 236 218 C 234 218, 239 218, 247 218 C 255 218, 262 218, 261 218 C 260 217, 238 217, 236 218 M 234 223 C 231 223, 229 224, 229 224 C 228 225, 238 224, 238 223 C 239 222, 238 222, 234 223 M 240 223 C 239 224, 259 224, 260 223 C 261 223, 256 223, 251 223 C 245 223, 240 223, 240 223 M 269 230 C 268 230, 267 231, 267 231 C 267 231, 267 231, 268 231 C 270 230, 268 234, 266 235 C 263 238, 263 239, 266 237 C 268 237, 272 231, 271 230 C 271 229, 270 229, 269 230 M 231 230 C 213 231, 212 231, 209 233 C 205 236, 203 236, 207 233 C 210 231, 210 231, 208 231 C 206 231, 196 237, 196 238 C 196 239, 222 239, 247 239 L 258 238 260 235 C 263 230, 262 229, 255 230 C 252 230, 241 230, 231 230 M 199 231 C 201 232, 188 238, 185 238 C 184 238, 183 238, 183 238 C 183 239, 184 239, 188 239 C 192 239, 193 239, 194 238 C 194 237, 195 236, 198 234 C 201 233, 202 230, 199 231 C 198 231, 198 231, 199 231 M 291 242 C 286 244, 283 246, 283 247 C 283 247, 286 246, 289 245 C 292 244, 295 242, 297 242 C 298 241, 300 240, 300 240 C 300 239, 299 239, 299 239 C 299 239, 295 240, 291 242 M 268 253 C 261 256, 256 259, 255 259 C 254 259, 254 260, 255 260 C 255 260, 257 260, 258 259 C 260 258, 265 256, 270 254 C 274 251, 279 249, 280 248 C 281 246, 282 246, 268 253 M 141 248 C 137 249, 109 259, 108 260 C 104 262, 113 260, 128 254 C 144 249, 149 246, 141 248 M 212 253 C 193 261, 186 264, 187 265 C 187 265, 195 262, 205 258 C 215 254, 225 250, 226 250 C 227 250, 229 249, 229 248 C 230 246, 225 248, 212 253 M 45 250 C 43 250, 41 251, 41 252 C 40 252, 41 253, 42 252 C 44 252, 45 251, 47 251 C 48 251, 49 250, 49 249 C 49 249, 48 249, 48 249 C 48 249, 47 249, 45 250 M 160 250 C 158 250, 152 252, 145 255 C 138 258, 132 260, 130 261 C 127 262, 125 264, 127 264 C 128 264, 160 251, 164 250 L 166 249 164 249 C 163 249, 161 249, 160 250 M 183 250 C 180 251, 179 251, 178 250 C 178 249, 178 250, 178 251 C 178 252, 177 252, 176 252 C 174 252, 148 261, 146 264 C 144 265, 147 265, 154 262 C 158 260, 167 257, 174 255 C 180 252, 187 250, 188 249 C 190 248, 188 248, 183 250 M 200 251 C 197 252, 188 255, 181 258 C 167 262, 162 265, 165 265 C 168 265, 206 250, 207 249 C 208 248, 205 249, 200 251 M 252 252 C 242 256, 229 263, 230 263 C 231 263, 235 262, 239 260 C 243 258, 248 256, 251 255 C 254 253, 257 252, 257 251 C 257 251, 256 251, 256 251 C 256 251, 254 252, 252 252" fill-rule="evenodd"/></svg>