<svg xmlns="http://www.w3.org/2000/svg" viewBox="0 0 320 320"><path d="M 197 84 C 196 85, 196 86, 196 88 C 196 90, 197 92, 197 94 C 197 95, 198 97, 198 98 C 198 99, 198 101, 198 101 C 197 102, 197 104, 198 105 C 198 107, 203 126, 203 128 C 203 128, 202 128, 201 128 C 200 127, 125 127, 51 128 C 33 128, 18 128, 17 127 C 16 127, 15 127, 14 129 C 11 131, 11 135, 13 135 C 13 135, 13 136, 13 138 C 13 140, 13 143, 13 146 C 14 150, 14 151, 13 152 C 12 154, 12 156, 12 163 C 13 168, 13 172, 12 172 C 11 173, 11 176, 13 177 C 15 178, 15 178, 13 181 C 11 183, 11 183, 13 184 C 15 186, 16 186, 19 185 C 21 185, 24 185, 25 185 C 27 186, 39 186, 53 186 C 102 185, 202 185, 202 186 C 202 187, 200 195, 199 198 C 199 200, 198 202, 198 203 C 198 204, 197 211, 195 218 C 193 228, 193 231, 194 232 C 194 234, 195 235, 196 235 C 196 235, 212 225, 213 224 C 213 224, 215 223, 216 222 C 218 221, 224 217, 230 213 C 235 209, 245 203, 251 199 C 256 195, 265 188, 270 185 C 286 174, 302 163, 304 161 C 308 159, 308 158, 304 155 C 302 154, 297 150, 293 147 C 286 141, 283 139, 271 131 C 268 129, 263 126, 260 123 C 254 119, 249 115, 244 112 C 243 111, 239 108, 235 105 C 232 103, 228 101, 228 101 C 228 101, 223 97, 211 88 C 209 87, 207 86, 206 86 C 205 86, 204 85, 203 84 C 201 81, 200 81, 197 84 M 226 108 C 226 108, 230 112, 235 116 C 241 121, 245 124, 245 123 C 245 122, 243 120, 241 119 C 235 114, 226 107, 226 108 M 163 136 C 157 136, 157 136, 168 136 C 174 136, 178 136, 176 135 C 173 135, 172 135, 163 136 M 40 137 C 33 137, 33 137, 43 137 C 48 137, 53 137, 53 137 C 54 135, 50 135, 40 137 M 76 137 C 64 138, 67 138, 90 138 C 105 138, 114 137, 115 137 C 116 135, 86 135, 76 137 M 38 144 C 38 144, 41 145, 45 145 C 48 145, 51 144, 51 144 C 51 143, 49 143, 45 143 C 40 143, 38 143, 38 144 M 19 149 C 19 151, 20 151, 25 150 C 27 149, 27 149, 25 149 C 24 149, 22 148, 21 148 C 19 147, 19 148, 19 149 M 35 161 L 29 161 36 161 C 40 161, 44 161, 45 161 C 46 159, 44 159, 35 161 M 19 177 C 19 179, 19 179, 23 179 C 28 178, 29 178, 25 178 C 23 178, 21 177, 21 177 C 20 175, 19 175, 19 177 M 50 177 C 48 177, 48 177, 53 177 C 56 177, 58 177, 57 177 C 55 175, 53 175, 50 177 M 290 179 C 287 180, 284 182, 284 182 C 283 183, 286 182, 289 181 C 292 179, 296 178, 297 177 C 298 177, 298 177, 297 177 C 296 177, 293 178, 290 179 M 288 186 C 281 188, 275 190, 273 190 C 270 191, 268 192, 271 193 C 272 193, 269 195, 264 197 C 258 200, 255 202, 255 202 C 256 202, 264 199, 274 194 C 283 190, 292 185, 294 185 C 297 184, 301 180, 299 181 C 299 181, 294 183, 288 186 M 53 193 C 50 194, 45 196, 41 198 C 37 199, 34 201, 34 202 C 34 203, 38 201, 48 197 C 52 195, 57 193, 59 193 C 62 192, 64 191, 64 191 C 64 190, 57 191, 53 193 M 75 191 C 74 192, 71 193, 67 195 C 55 199, 48 202, 48 203 C 47 204, 50 204, 53 202 C 56 201, 63 198, 69 196 C 80 192, 82 191, 78 191 C 77 191, 75 191, 75 191 M 93 192 C 89 193, 65 204, 65 204 C 64 204, 64 205, 65 205 C 65 206, 71 203, 78 200 C 84 197, 92 194, 94 193 C 97 192, 99 190, 96 191 C 96 191, 94 191, 93 192 M 110 193 C 99 197, 80 206, 82 206 C 83 206, 87 205, 91 203 C 95 201, 102 198, 108 196 C 113 193, 118 191, 118 191 C 119 190, 115 191, 110 193 M 125 194 C 107 202, 97 207, 97 208 C 96 209, 99 208, 109 204 C 114 201, 122 198, 126 196 C 134 193, 137 190, 135 191 C 134 191, 130 192, 125 194 M 142 195 C 121 205, 113 209, 114 209 C 115 209, 123 206, 133 202 C 142 197, 151 193, 152 193 C 155 192, 155 190, 153 191 C 153 191, 147 193, 142 195 M 34 194 C 31 195, 29 196, 29 197 C 29 198, 38 194, 40 192 C 41 191, 40 191, 34 194 M 169 193 C 168 193, 164 195, 160 197 C 143 203, 130 210, 130 211 C 130 212, 130 211, 151 202 C 161 198, 169 194, 169 194 C 170 194, 171 194, 172 193 C 174 191, 172 191, 169 193 M 173 200 C 153 208, 148 211, 148 212 C 148 212, 150 212, 168 204 C 178 200, 189 195, 189 194 C 189 193, 185 194, 173 200 M 271 201 C 264 204, 259 207, 259 208 C 259 209, 261 208, 272 203 C 277 200, 282 199, 282 199 C 283 199, 284 198, 285 197 C 289 194, 284 196, 271 201 M 178 208 C 168 212, 165 214, 170 213 C 174 212, 188 206, 188 205 C 188 204, 187 204, 187 204 C 187 204, 183 206, 178 208 M 238 216 C 228 221, 221 225, 221 225 C 222 225, 228 223, 235 220 C 241 216, 249 213, 251 212 C 252 211, 255 210, 256 209 C 260 206, 254 208, 238 216 M 262 213 C 260 214, 259 215, 259 216 C 259 217, 260 217, 265 214 C 271 211, 269 210, 262 213 M 247 220 C 234 226, 221 233, 221 234 C 221 234, 223 233, 226 232 C 229 230, 232 229, 232 229 C 234 229, 257 218, 257 217 C 257 216, 255 217, 247 220 M 244 230 C 237 233, 233 236, 233 236 C 235 237, 256 226, 256 225 C 256 224, 257 224, 244 230" fill-rule="evenodd"/></svg>